Patient4_TMGait_0pt4_01_left_23_EMG.mot
version=1
nRows=30
nColumns=33
inDegrees=no
endheader
time	1LAddLong	2LGlutMax	3LGlutMed	4LIliopsoas	5LSemiMemb	6LBicFemLong	7LRecFem	8LVastMed	9LVastLat	10LGasMed	11LTibAnt	12lTibPost	13LPeroneusLong	14LSol	15LExtDigLong	16LFlexDigLong	17RAddLong	18RGlutMax	19RGlutMed	20RIliopsoas	21RSemiMemb	22RBicFemLong	23RRecFem	24RVastMed	25RVastLat	26RGasMed	27RTibAnt	28RTibPost	29RPeroneusLong	30RSol	31RExtDigLong	32RFlexDigLong
28.555	-0.003357	0.18463	-0.026093	0.011597	-0.003815	0.20432	-0.074463	-0.001068	-0.012207	-0.006714	-0.002441	0.012054	-0.14816	-0.030518	-0.17899	-0.008392	-0.072479	0.29114	-0.44571	-0.005035	-0.076599	0.8046	-0.24933	-0.014648	-0.013275	-0.004883	0.19104	-0.001373	-0.006561	-0.034943	0.006561	-0.014801
28.556	0.010376	0.2005	-0.074921	0.000153	0.028687	0.11795	-0.079803	0.007477	-0.011902	-0.070648	0.010376	0.007629	-0.079041	0.005798	0.15045	0.007935	-0.023193	0.34607	-0.059814	-0.027161	0.099792	0.73074	-0.26932	-0.07309	-0.021667	0.003052	0.078583	-0.005341	-0.024567	0.050201	0.008392	-0.009155
28.557	0.011444	0.20447	-0.062103	0.00885	0.06958	0.10712	-0.051575	0.010529	-0.028992	-0.071411	0.026398	0.018768	-0.019379	-0.013428	-0.06073	0.001526	-0.016785	0.31082	0.25574	-0.021667	0.2655	0.55313	-0.18601	-0.354	0.26184	0.003662	-0.17364	-0.002289	0.28641	0.065002	0.002441	-0.003204
28.558	-0.002594	0.19608	-0.062103	0.021973	0.036011	0.10056	-0.036316	0.007629	-0.028229	0.099792	0.039368	0.023956	-0.047607	0.014038	-0.15198	0.000458	-0.061493	0.28458	0.03067	-0.040131	0.21423	0.40497	-0.11963	-0.39444	0.37537	-0.003204	-0.21881	-0.003204	0.50827	-0.005188	0.005188	-0.007935
28.559	0.000458	0.21378	-0.010376	0.000763	-0.021057	-0.06546	-0.080566	0.01236	-0.018616	0.095825	-0.001068	0.016022	-0.015869	0.034485	0.42389	0.012817	-0.074005	0.32394	0.061646	-0.022736	0.68344	0.23773	-0.049133	-0.30746	0.23285	-0.001678	-0.065765	-0.00061	0.93918	-0.14206	0.00824	-0.003052
28.56	-0.005798	0.23468	-0.018311	0.007935	-0.015564	-0.20279	-0.079193	-0.00351	-0.005951	0.26947	-0.019226	-0.005951	0.025482	-0.005493	0.49011	0.001373	-0.04364	0.30853	-0.13748	-0.007019	0.65018	0.12024	0.095215	-0.061646	0.1149	-0.003815	0.37628	-0.002899	0.021362	-0.20309	0.007629	-0.008698
28.561	0.009308	0.26962	-0.088043	-0.005798	0.017853	-0.07019	-0.088806	-0.001068	-0.010223	0.44647	-0.046997	-0.014038	0.044861	-0.026245	-0.17761	0.008392	-0.024567	0.25772	-0.30624	-0.029297	0.31845	0.13473	0.11032	0.010223	0.012817	0.003357	0.41122	-0.011902	-0.69412	-0.1004	0.001221	-0.00946
28.562	0.001068	0.23056	-0.079498	0.005493	-0.016174	-0.073395	-0.079651	0.012207	-0.030975	0.39642	0.032959	-0.005798	0.018921	0.008698	0.11932	0.00946	-0.011444	0.21042	-0.46478	0.019226	0.11353	0.09964	0.06134	-0.056152	-0.11841	-0.001221	0.30853	-0.004425	-0.67734	0.015259	0.000916	-0.012512
28.563	0.000305	0.23651	-0.043182	0.003357	-0.037079	-0.078583	-0.052338	0.005341	-0.025482	0.1033	-0.014343	-0.002899	0.02594	-0.007324	-0.25238	0.004883	-0.008087	0.30533	-0.45624	0.003662	0.11124	0.081482	-0.010529	0.050812	-0.12451	-0.002747	0.1532	-0.002747	-1.2105	0.01709	0.007324	-0.002594
28.564	0.009155	0.19302	0.075989	0.008392	-0.04364	-0.028076	-0.051117	0.012207	-0.05188	-0.30975	-0.026703	0.000305	-0.001068	-0.064697	-0.44571	-0.000916	-0.019226	0.31479	-0.22629	-0.043335	0.082092	0.069275	-0.054016	0.11383	-0.17273	-0.008392	0.046082	-0.007935	-2.3265	-0.00412	0.007477	-0.014191
28.565	0.029144	0.15152	0.011749	-0.016937	-0.006256	0.022736	-0.079651	0.00885	-0.086517	-0.017853	-0.015564	0.003815	-0.011444	-0.15411	-0.47455	-0.003815	0.01297	0.22293	-0.16388	-0.096283	0.034943	0.062714	-0.032349	0.053864	-0.0354	-0.006561	-0.1651	-0.002594	-1.9406	-0.025787	0.002136	-0.013733
28.566	0.016174	0.14008	0.00885	0.017853	0.034943	0.025787	-0.064697	0.005188	-0.1001	0.11032	-0.007782	-0.000763	-0.027008	-0.17807	-0.24887	0.011292	0.058594	0.20187	0.11688	-0.1358	0.19775	0.087585	-0.052185	0.06424	0.64682	0.005188	0.033875	-0.002594	0.056152	-0.054932	0.003052	-0.015869
28.567	0.010834	0.1506	0.077515	0.000305	0.06424	-0.030365	-0.036469	0.002747	-0.10239	0.16159	-0.015106	0.00946	0.003815	-0.17471	-0.087891	-0.001526	0.10941	0.23041	0.14481	-0.026398	0.22614	0.049591	0.009918	-0.0354	0.64606	0.011444	0.11337	-0.001984	2.8281	-0.1152	0.005493	-0.005798
28.568	0.012512	0.1445	0.071411	0.001526	0.054779	-0.047607	-0.044708	0.001373	-0.09613	0.18463	-0.028992	0.00824	0.10574	-0.11658	-0.039368	0.000763	0.15182	0.17395	0.2626	-0.010376	0.026245	0.041656	-0.013885	-0.088348	0.33264	0.000305	-0.14252	-0.004883	1.7279	-0.11169	-0.002747	-0.010071
28.569	-0.002441	0.12375	0.048065	-0.008392	0.041962	-0.041962	-0.012512	0.010071	-0.027771	-0.059204	-0.005188	0.018616	0.14572	-0.13855	0.11108	0.001221	0.10025	0.10986	0.053558	0.088959	-0.006256	0.041504	0.063934	-0.15228	-0.22156	-0.001373	-0.29923	-0.005035	-0.25116	-0.042419	0.000763	-0.022888
28.57	0.006866	0.077972	-0.013885	-0.000153	0.039368	-0.024872	-0.050507	0.000305	0.097198	-0.17548	-0.016785	0.004578	0.073547	0.013733	0.21591	-0.010529	0.11261	0.15518	0.11002	0.073853	0.26291	-0.027771	0.090637	-0.23926	-0.52277	-0.011139	-0.37781	-0.008698	-0.71655	0.075073	-0.001068	-0.020447
28.571	0.007629	0.10681	-0.03891	-0.001526	0.021362	-0.026703	-0.083923	0.00061	0.018616	-0.32379	0.021057	0.018463	-0.021362	0.17761	0.21759	-0.011597	0.12192	0.17777	0.058289	0.027313	0.36743	-0.032196	0.10101	-0.33722	-0.68344	-0.006104	-0.41626	-0.003967	-0.36545	-0.053406	-0.001373	-0.01358
28.572	0.011749	0.10162	-0.016632	0.001984	0.032959	0.042572	-0.15839	0.007019	0.01297	-0.27588	0.059967	0.01297	-0.09552	0.27069	0.003815	-0.005798	0.02594	0.32928	0.027008	-0.043182	0.26016	-0.006256	-0.015106	-0.25925	-0.86655	0.003967	-0.29572	-0.005035	-0.025482	-0.22736	0.000458	-0.002747
28.573	0.004425	0.12451	-0.001526	-0.002441	0.030975	0.23727	-0.19241	0.007477	0.039368	-0.15549	0.015411	0.007019	-0.22217	0.19028	0.030823	-0.002289	0.027161	0.41275	0.18158	-0.20645	0.19836	-0.062256	-0.018463	-0.27679	-0.7898	-0.002289	-0.21713	-0.005798	0.55344	-0.10422	-0.000153	-0.011902
28.574	0.005798	0.11307	0.02182	0.006866	0.011292	0.31235	-0.24612	0.016327	0.024109	-0.048218	-0.000153	0.020294	-0.31281	0.04303	-0.030365	0.000153	0.03006	0.41977	0.18356	-0.26108	0.15732	-0.13672	0.11261	-0.26901	-0.5246	0.00351	0.004272	-0.010376	0.26642	0.023346	0.000916	-0.010681
28.575	0.005951	0.10483	-0.014191	-0.013733	-0.030823	0.36453	-0.20615	0.016479	0.036469	-0.006256	0.019836	0.012512	0.053558	0.010986	-0.012054	-0.006714	0.012207	0.50522	0.19455	-0.18372	0.17654	-0.11459	0.12466	-0.12253	-0.16586	0.003662	0.1413	-0.003204	0.34454	0.062256	-0.000763	-0.009766
28.576	0.000916	0.10605	0.025177	0.001984	-0.036316	0.35248	-0.18097	-0.006104	0.061035	-0.029449	0.004425	-0.002289	0.60669	0.070343	0.031281	-0.010223	-0.018158	0.47516	0.11673	-0.087128	0.18723	-0.09613	0.033875	-0.021057	-0.000458	-0.003052	0.24704	-0.010376	0.080261	0.046539	-0.001221	-0.009613
28.577	0.003357	0.13229	0.007629	0.002136	-0.027466	0.25024	-0.20981	-0.004272	0.091553	-0.002289	0.007324	0.001984	-0.031586	0.11841	0.030518	0.005951	-0.011597	0.49194	0.14236	0.27069	-0.15182	-0.082092	0.040894	0.035858	0.027924	-0.007935	0.23453	-0.000153	-0.10452	0.039063	-0.000916	-0.011749
28.578	0.002899	0.13107	-0.012665	0.011597	-0.012207	-0.10635	-0.19348	0.003357	0.095673	-0.044098	0.02594	-0.001068	0.053101	0.080872	0.009918	0.007629	-0.038452	0.49652	0.18143	0.59052	-0.056	0.007019	0.09613	0.18936	0.02121	0.001068	0.25085	-0.005188	-0.2327	0.037537	-0.000763	-0.007477
28.579	0.018616	0.14145	-0.015564	-0.001984	0.009155	-0.35934	-0.1799	0.00412	0.052032	-0.066071	0.019684	0.013123	0.10162	0.079041	-0.037994	0.006256	-0.065002	0.53268	0.13306	0.42969	0.086823	0.060425	-0.019379	0.21652	0.052795	-0.003052	0.24307	-0.001984	-0.21179	-0.02655	-0.00061	-0.012665
28.58	0.012512	0.15488	-0.017242	0.005035	0.030212	-0.22476	-0.15656	0.006256	0.035706	-0.097198	0.015411	0.00351	0.31387	0.11948	0.019684	0.001831	-0.063171	0.48843	0.002594	0.14893	0.041046	0.07431	-0.058746	0.13397	0.041199	-0.000458	0.32257	-0.004578	0.090485	-0.056915	-0.001526	-0.008698
28.581	0.011597	0.14984	-0.001526	0.005188	0.050964	-0.12436	-0.15488	0.001678	0.023651	-0.11856	0.026093	-0.004425	-0.11261	0.1178	0.060425	0.005035	-0.059357	0.27268	0.057373	0.066223	0.05127	-0.038147	-0.071869	0.13306	0.027618	0.011139	0.39658	-0.003967	0.57312	-0.073242	-0.003357	-0.015564
28.582	0.010986	0.12375	-0.014648	-0.001984	0.013123	0.094604	-0.16266	-0.003815	0.023804	-0.077362	0.016022	-0.008698	0.047913	0.20538	0.021667	0.008545	-0.066833	0.23941	0.25574	0.00824	0.31036	-0.050964	-0.13473	0.24475	0.067444	-0.003052	0.51025	-0.004883	-0.034637	-0.088501	-0.001678	-0.018463
28.583	0.009308	0.17197	-0.016327	-0.001068	0.007172	0.22308	-0.1561	-0.015106	0.023651	0.15503	0.016174	0.005188	-0.27527	0.26901	-0.025482	0.001221	-0.046387	0.2066	0.45441	0.005035	0.3978	0.20157	-0.093079	0.27023	0.098267	-0.005341	0.39505	-0.001984	0.014801	-0.12894	-0.000763	-0.014343
28.584	0.016632	0.12909	-0.00061	0	-0.022888	0.11734	-0.18021	0.00351	0.023956	0.26276	0.015259	0.029755	-0.14084	0.16907	-0.0737	-0.93964	-0.011444	0.050507	0.32944	0.033875	0.37186	0.41214	-0.066986	0.21973	0.097504	0.001068	0.23468	-0.004272	0.011597	-0.09903	0.000305	-0.014343
